<svg width="46" height="36" viewBox="0 0 46 36" fill="none" xmlns="http://www.w3.org/2000/svg">
<path d="M45.0879 35.2983V35.3903H45.1737C45.1898 35.3906 45.2057 35.3865 45.2197 35.3786C45.2253 35.3746 45.2298 35.3693 45.2328 35.3632C45.2358 35.357 45.2373 35.3502 45.237 35.3434C45.2373 35.3367 45.2358 35.33 45.2328 35.324C45.2298 35.318 45.2253 35.3129 45.2197 35.3091C45.2059 35.3008 45.1899 35.2967 45.1737 35.2974H45.0879V35.2983ZM45.1746 35.2332C45.2114 35.231 45.2478 35.2416 45.2777 35.2631C45.2896 35.2729 45.2991 35.2854 45.3054 35.2995C45.3117 35.3137 45.3145 35.3291 45.3138 35.3445C45.3143 35.3578 45.312 35.3711 45.307 35.3834C45.302 35.3958 45.2945 35.4069 45.2848 35.4161C45.2618 35.4361 45.2329 35.4481 45.2025 35.4503L45.3175 35.5814H45.2289L45.1231 35.4513H45.0889V35.5814H45.0148V35.2335H45.1758L45.1746 35.2332ZM45.1516 35.7015C45.1905 35.7018 45.229 35.694 45.2646 35.6785C45.2989 35.6637 45.3301 35.6425 45.3566 35.6161C45.3831 35.5898 45.4042 35.5585 45.4189 35.5242C45.449 35.4513 45.449 35.3694 45.4189 35.2965C45.404 35.2622 45.3829 35.231 45.3566 35.2045C45.3301 35.1781 45.2989 35.157 45.2646 35.1422C45.2287 35.1275 45.1904 35.1201 45.1516 35.1206C45.1123 35.1202 45.0732 35.1275 45.0367 35.1422C45.0016 35.1567 44.9696 35.1778 44.9426 35.2045C44.9019 35.2462 44.8744 35.299 44.8635 35.3562C44.8526 35.4135 44.8587 35.4727 44.8812 35.5265C44.8952 35.561 44.9161 35.5923 44.9426 35.6184C44.9696 35.6451 45.0016 35.6662 45.0367 35.6808C45.073 35.6963 45.1121 35.7041 45.1516 35.7038M45.1516 35.0368C45.2527 35.0367 45.3498 35.0764 45.4219 35.1472C45.4566 35.1812 45.4843 35.2218 45.5033 35.2666C45.5229 35.3126 45.5331 35.362 45.5331 35.412C45.5331 35.462 45.5229 35.5115 45.5033 35.5575C45.4838 35.602 45.4562 35.6425 45.4219 35.6769C45.3866 35.7107 45.3455 35.7379 45.3007 35.7573C45.2536 35.7774 45.2028 35.7875 45.1516 35.7872C45.0999 35.7876 45.0485 35.7774 45.0008 35.7573C44.9554 35.7384 44.914 35.7111 44.8787 35.6769C44.8443 35.6413 44.8171 35.5994 44.7984 35.5536C44.7788 35.5076 44.7686 35.4581 44.7686 35.4081C44.7686 35.3581 44.7788 35.3087 44.7984 35.2627C44.8174 35.2179 44.8451 35.1773 44.8798 35.1433C44.9146 35.1085 44.9562 35.0811 45.0019 35.0628C45.0497 35.0427 45.101 35.0326 45.1528 35.0329M9.93845 33.6931C9.93845 33.0297 10.3731 32.4846 11.0835 32.4846C11.7623 32.4846 12.2205 33.0062 12.2205 33.6931C12.2205 34.38 11.7623 34.9016 11.0835 34.9016C10.3731 34.9016 9.93845 34.3566 9.93845 33.6931M12.9943 33.6931V31.8051H12.1735V32.265C11.9132 31.9251 11.5184 31.7119 10.9814 31.7119C9.9235 31.7119 9.0933 32.5417 9.0933 33.694C9.0933 34.8464 9.92304 35.6762 10.9814 35.6762C11.5181 35.6762 11.9132 35.4628 12.1735 35.1231V35.5814H12.9934V33.6931H12.9943ZM40.727 33.6931C40.727 33.0297 41.1616 32.4846 41.8723 32.4846C42.5518 32.4846 43.0092 33.0062 43.0092 33.6931C43.0092 34.38 42.5518 34.9016 41.8723 34.9016C41.1619 34.9016 40.727 34.3566 40.727 33.6931ZM43.7838 33.6931V30.2896H42.9623V32.265C42.702 31.9251 42.3071 31.7119 41.7701 31.7119C40.7123 31.7119 39.8821 32.5417 39.8821 33.694C39.8821 34.8464 40.7118 35.6762 41.7701 35.6762C42.3071 35.6762 42.702 35.4628 42.9623 35.1231V35.5814H43.7838V33.6931ZM23.1811 32.4458C23.71 32.4458 24.0497 32.7774 24.1364 33.3613H22.178C22.2656 32.8162 22.5965 32.4458 23.1813 32.4458M23.1977 31.7099C22.0915 31.7099 21.3177 32.5148 21.3177 33.692C21.3177 34.8922 22.1226 35.6741 23.2526 35.6741C23.8211 35.6741 24.3418 35.5322 24.7999 35.1452L24.3977 34.5369C24.0812 34.7899 23.6783 34.9317 23.2995 34.9317C22.7706 34.9317 22.2891 34.6868 22.1706 34.0073H24.9733C24.9813 33.9052 24.9896 33.8021 24.9896 33.6917C24.9813 32.515 24.2537 31.7096 23.1972 31.7096M33.1067 33.6917C33.1067 33.0283 33.5413 32.4832 34.2517 32.4832C34.9306 32.4832 35.3887 33.0048 35.3887 33.6917C35.3887 34.3787 34.9306 34.9002 34.2517 34.9002C33.5413 34.9002 33.1064 34.3552 33.1064 33.6917M36.1623 33.6917V31.8051H35.342V32.265C35.0807 31.9251 34.6868 31.7119 34.1498 31.7119C33.092 31.7119 32.2618 32.5417 32.2618 33.694C32.2618 34.8464 33.0915 35.6762 34.1498 35.6762C34.6868 35.6762 35.0807 35.4628 35.342 35.1231V35.5814H36.1625V33.6931L36.1623 33.6917ZM28.4716 33.6917C28.4716 34.8368 29.2687 35.6739 30.4852 35.6739C31.0537 35.6739 31.4325 35.5474 31.8421 35.2238L31.4479 34.5603C31.1397 34.7818 30.8162 34.9002 30.459 34.9002C29.8038 34.8922 29.322 34.4185 29.322 33.6917C29.322 32.965 29.8038 32.4915 30.459 32.4832C30.8152 32.4832 31.1388 32.6017 31.4479 32.8231L31.8421 32.1597C31.4318 31.8361 31.053 31.7096 30.4852 31.7096C29.2687 31.7096 28.4716 32.5465 28.4716 33.6917M39.0526 31.7096C38.5791 31.7096 38.2707 31.9311 38.0575 32.2627V31.8051H37.2441V35.5793H38.0658V33.4636C38.0658 32.839 38.3341 32.492 38.8707 32.492C39.0464 32.4894 39.2208 32.5217 39.384 32.587L39.6369 31.8133C39.4553 31.7418 39.2184 31.7103 39.0521 31.7103M17.0521 32.1052C16.6573 31.8448 16.1132 31.7103 15.513 31.7103C14.5567 31.7103 13.9411 32.1686 13.9411 32.9186C13.9411 33.534 14.3994 33.9137 15.2434 34.0321L15.6312 34.0873C16.0812 34.1505 16.2937 34.269 16.2937 34.4822C16.2937 34.774 15.9947 34.9405 15.4334 34.9405C14.8649 34.9405 14.4546 34.7588 14.178 34.5456L13.7923 35.1856C14.2424 35.5173 14.8108 35.6755 15.4265 35.6755C16.5165 35.6755 17.1483 35.1622 17.1483 34.4435C17.1483 33.7801 16.6511 33.433 15.8296 33.3146L15.4428 33.2585C15.0875 33.2125 14.8028 33.141 14.8028 32.888C14.8028 32.612 15.0712 32.446 15.5215 32.446C16.0032 32.446 16.4696 32.6277 16.6982 32.7696L17.0535 32.1061L17.0521 32.1052ZM27.6426 31.711C27.169 31.711 26.8607 31.9325 26.6484 32.2641V31.8051H25.835V35.5793H26.6557V33.4636C26.6557 32.839 26.9241 32.492 27.4606 32.492C27.6363 32.4894 27.8108 32.5217 27.9739 32.587L28.2269 31.8133C28.0452 31.7418 27.8084 31.7103 27.6421 31.7103M20.6386 31.8051H19.2964V30.66H18.4667V31.8051H17.7011V32.5552H18.4667V34.277C18.4667 35.1528 18.8066 35.6743 19.7775 35.6743C20.1338 35.6743 20.544 35.5639 20.8044 35.3825L20.5673 34.6797C20.3223 34.8216 20.054 34.8931 19.8405 34.8931C19.4303 34.8931 19.2964 34.6401 19.2964 34.2614V32.5559H20.6386V31.8051ZM8.36751 35.5803V33.2116C8.36751 32.3195 7.79902 31.7193 6.88259 31.7112C6.4008 31.7032 5.90383 31.8531 5.55589 32.3827C5.29556 31.9642 4.88529 31.7112 4.30852 31.7112C3.90538 31.7112 3.51144 31.8297 3.20305 32.2717V31.8051H2.38159V35.5793H3.20949V33.4866C3.20949 32.8314 3.57284 32.4832 4.13397 32.4832C4.679 32.4832 4.95474 32.8386 4.95474 33.4783V35.5789H5.78448V33.4862C5.78448 32.831 6.16324 32.4828 6.70804 32.4828C7.26848 32.4828 7.53594 32.8381 7.53594 33.4779V35.5784L8.36751 35.5803Z" fill="#231F20"/>
<path d="M45.5558 23.0253V22.4734H45.4121L45.2458 22.8522L45.0805 22.4734H44.9363V23.0253H45.0384V22.6095L45.1939 22.9683H45.2996L45.4551 22.6086V23.0253H45.5563H45.5558ZM44.644 23.0253V22.5679H44.828V22.4748H44.3579V22.5679H44.5419V23.0253H44.6431H44.644Z" fill="#F79410"/>
<path d="M29.2195 25.3923H16.7812V3.03906H29.2197L29.2195 25.3923Z" fill="#FF5F00"/>
<path d="M17.5698 14.2161C17.5698 9.68181 19.6929 5.64259 22.999 3.03955C20.4964 1.06627 17.4012 -0.00469342 14.2143 1.5462e-05C6.36377 1.5462e-05 0 6.3647 0 14.2161C0 22.0676 6.36377 28.4323 14.2143 28.4323C17.4013 28.437 20.4966 27.3661 22.9992 25.3928C19.6934 22.7902 17.5698 18.7507 17.5698 14.2161Z" fill="#EB001B"/>
<path d="M46.0001 14.2163C46.0001 22.0677 39.6363 28.4324 31.7858 28.4324C28.5985 28.4371 25.5028 27.3661 22.9998 25.3929C26.3067 22.7898 28.4298 18.7508 28.4298 14.2163C28.4298 9.6817 26.3067 5.64271 22.9998 3.03967C25.5028 1.06645 28.5983 -0.00448881 31.7856 0.000136993C39.6361 0.000136993 45.9999 6.36482 45.9999 14.2163" fill="#F79E1B"/>
</svg>
